<svg width="23" height="21" viewBox="0 0 23 21" fill="none" xmlns="http://www.w3.org/2000/svg">
<path d="M11.3803 4.17798C10.6228 3.17262 8.74772 1.041 6.46366 1.02875C3.5068 1.01288 1.0867 3.71847 1.06877 7.05949C1.06061 8.58106 1.55804 10.0362 2.47158 11.1673C2.49108 11.2047 2.51644 11.2392 2.54728 11.2699C2.62096 11.3524 2.68682 11.4169 2.75352 11.4805L2.8377 11.5631L10.9932 19.8036C11.0765 19.8878 11.186 19.9303 11.2958 19.9309C11.4056 19.9315 11.5151 19.8901 11.5994 19.8072L19.5774 11.9306C19.6039 11.9044 19.6267 11.8752 19.6453 11.8434C20.9179 10.6877 21.6506 8.99277 21.6604 7.16997C21.6783 3.82895 19.2873 1.09755 16.3305 1.08169C14.0464 1.06943 12.1486 3.18081 11.3803 4.17798Z" fill="#FF0000" stroke="#FF0000"/>
</svg>
