<svg width="297" height="125" viewBox="0 0 297 125" fill="none" xmlns="http://www.w3.org/2000/svg">
<path d="M135.376 66.2C136.532 66.2 137.631 66.5513 138.674 67.254C139.717 67.934 140.555 68.8633 141.19 70.042C141.825 71.198 142.142 72.4673 142.142 73.85C142.142 75.21 141.825 76.4793 141.19 77.658C140.555 78.8367 139.717 79.7773 138.674 80.48C137.631 81.16 136.532 81.5 135.376 81.5H129.46V87.926C129.46 88.538 129.279 89.0367 128.916 89.422C128.553 89.8073 128.077 90 127.488 90C126.921 90 126.457 89.8073 126.094 89.422C125.731 89.014 125.55 88.5153 125.55 87.926V68.274C125.55 67.6847 125.743 67.1973 126.128 66.812C126.536 66.404 127.035 66.2 127.624 66.2H135.376ZM135.376 77.624C135.807 77.624 136.226 77.4427 136.634 77.08C137.065 76.7173 137.405 76.2527 137.654 75.686C137.926 75.0967 138.062 74.4847 138.062 73.85C138.062 73.2153 137.926 72.6147 137.654 72.048C137.405 71.4587 137.065 70.994 136.634 70.654C136.226 70.2913 135.807 70.11 135.376 70.11H129.46V77.624H135.376ZM149.538 87.926C149.538 88.5153 149.346 89.014 148.96 89.422C148.575 89.8073 148.088 90 147.498 90C146.909 90 146.422 89.8073 146.036 89.422C145.651 89.014 145.458 88.5153 145.458 87.926V73.884C145.458 73.2947 145.651 72.8073 146.036 72.422C146.422 72.014 146.909 71.81 147.498 71.81C148.088 71.81 148.575 72.014 148.96 72.422C149.346 72.8073 149.538 73.2947 149.538 73.884V87.926ZM147.464 69.6C146.694 69.6 146.15 69.4753 145.832 69.226C145.515 68.9767 145.356 68.5347 145.356 67.9V67.254C145.356 66.6193 145.526 66.1773 145.866 65.928C146.206 65.6787 146.75 65.554 147.498 65.554C148.292 65.554 148.847 65.6787 149.164 65.928C149.482 66.1773 149.64 66.6193 149.64 67.254V67.9C149.64 68.5573 149.47 69.0107 149.13 69.26C148.813 69.4867 148.258 69.6 147.464 69.6ZM167.229 71.81C167.819 71.81 168.306 72.014 168.691 72.422C169.077 72.8073 169.269 73.2947 169.269 73.884V82.52C169.269 84.968 168.589 86.8833 167.229 88.266C165.892 89.6487 163.977 90.34 161.483 90.34C158.99 90.34 157.075 89.6487 155.737 88.266C154.4 86.8833 153.731 84.968 153.731 82.52V73.884C153.731 73.2947 153.924 72.8073 154.309 72.422C154.695 72.014 155.182 71.81 155.771 71.81C156.361 71.81 156.848 72.014 157.233 72.422C157.619 72.8073 157.811 73.2947 157.811 73.884V82.52C157.811 83.9027 158.117 84.934 158.729 85.614C159.341 86.2713 160.259 86.6 161.483 86.6C162.73 86.6 163.659 86.2713 164.271 85.614C164.883 84.934 165.189 83.9027 165.189 82.52V73.884C165.189 73.2947 165.382 72.8073 165.767 72.422C166.153 72.014 166.64 71.81 167.229 71.81ZM183.105 71.47C184.669 71.47 186.085 71.878 187.355 72.694C188.624 73.4873 189.621 74.598 190.347 76.026C191.095 77.454 191.469 79.0747 191.469 80.888C191.469 82.7013 191.106 84.3333 190.381 85.784C189.655 87.212 188.658 88.334 187.389 89.15C186.142 89.9433 184.759 90.34 183.241 90.34C182.153 90.34 181.121 90.1247 180.147 89.694C179.195 89.2407 178.401 88.6967 177.767 88.062V94.726C177.767 95.3153 177.574 95.8027 177.189 96.188C176.803 96.596 176.316 96.8 175.727 96.8C175.137 96.8 174.65 96.6073 174.265 96.222C173.879 95.8367 173.687 95.338 173.687 94.726V73.884C173.687 73.2947 173.879 72.8073 174.265 72.422C174.65 72.014 175.137 71.81 175.727 71.81C176.316 71.81 176.803 72.014 177.189 72.422C177.574 72.8073 177.767 73.2947 177.767 73.884V74.02C178.311 73.34 179.07 72.7507 180.045 72.252C181.019 71.7307 182.039 71.47 183.105 71.47ZM182.595 86.6C184.045 86.6 185.235 86.056 186.165 84.968C187.094 83.88 187.559 82.52 187.559 80.888C187.559 79.256 187.094 77.9073 186.165 76.842C185.258 75.754 184.068 75.21 182.595 75.21C181.121 75.21 179.92 75.754 178.991 76.842C178.061 77.9073 177.597 79.256 177.597 80.888C177.597 82.52 178.061 83.88 178.991 84.968C179.92 86.056 181.121 86.6 182.595 86.6ZM198.712 87.926C198.712 88.5153 198.519 89.014 198.134 89.422C197.749 89.8073 197.261 90 196.672 90C196.083 90 195.595 89.8073 195.21 89.422C194.825 89.014 194.632 88.5153 194.632 87.926V73.884C194.632 73.2947 194.825 72.8073 195.21 72.422C195.595 72.014 196.083 71.81 196.672 71.81C197.261 71.81 197.749 72.014 198.134 72.422C198.519 72.8073 198.712 73.2947 198.712 73.884V87.926ZM196.638 69.6C195.867 69.6 195.323 69.4753 195.006 69.226C194.689 68.9767 194.53 68.5347 194.53 67.9V67.254C194.53 66.6193 194.7 66.1773 195.04 65.928C195.38 65.6787 195.924 65.554 196.672 65.554C197.465 65.554 198.021 65.6787 198.338 65.928C198.655 66.1773 198.814 66.6193 198.814 67.254V67.9C198.814 68.5573 198.644 69.0107 198.304 69.26C197.987 69.4867 197.431 69.6 196.638 69.6ZM216.403 71.81C216.993 71.81 217.48 72.014 217.865 72.422C218.251 72.8073 218.443 73.2947 218.443 73.884V82.52C218.443 84.968 217.763 86.8833 216.403 88.266C215.066 89.6487 213.151 90.34 210.657 90.34C208.164 90.34 206.249 89.6487 204.911 88.266C203.574 86.8833 202.905 84.968 202.905 82.52V73.884C202.905 73.2947 203.098 72.8073 203.483 72.422C203.869 72.014 204.356 71.81 204.945 71.81C205.535 71.81 206.022 72.014 206.407 72.422C206.793 72.8073 206.985 73.2947 206.985 73.884V82.52C206.985 83.9027 207.291 84.934 207.903 85.614C208.515 86.2713 209.433 86.6 210.657 86.6C211.904 86.6 212.833 86.2713 213.445 85.614C214.057 84.934 214.363 83.9027 214.363 82.52V73.884C214.363 73.2947 214.556 72.8073 214.941 72.422C215.327 72.014 215.814 71.81 216.403 71.81ZM243.804 71.81C244.348 71.81 244.802 72.014 245.164 72.422C245.55 72.8073 245.742 73.306 245.742 73.918C245.742 74.122 245.697 74.3827 245.606 74.7L240.404 88.708C240.268 89.116 240.019 89.4447 239.656 89.694C239.316 89.9207 238.942 90.034 238.534 90.034L238.262 90C237.492 89.9547 236.914 89.524 236.528 88.708L233.638 80.344L230.884 88.708C230.499 89.524 229.921 89.9547 229.15 90L228.878 90.034C228.47 90.034 228.085 89.9207 227.722 89.694C227.382 89.4447 227.144 89.116 227.008 88.708L221.806 74.7C221.716 74.4507 221.67 74.19 221.67 73.918C221.67 73.3513 221.852 72.864 222.214 72.456C222.6 72.0253 223.098 71.81 223.71 71.81C224.164 71.81 224.549 71.9233 224.866 72.15C225.206 72.354 225.444 72.6713 225.58 73.102L229.252 83.064L231.938 75.788C232.301 74.9493 232.924 74.53 233.808 74.53C234.284 74.53 234.647 74.632 234.896 74.836C235.168 75.04 235.395 75.3573 235.576 75.788L238.194 82.894L241.832 73.102C241.968 72.6713 242.206 72.354 242.546 72.15C242.886 71.9233 243.306 71.81 243.804 71.81ZM265.278 80.48C265.255 81.024 265.04 81.466 264.632 81.806C264.224 82.146 263.748 82.316 263.204 82.316H251.984C252.256 83.6533 252.879 84.7073 253.854 85.478C254.829 86.226 255.928 86.6 257.152 86.6C258.081 86.6 258.807 86.5207 259.328 86.362C259.849 86.1807 260.257 85.9993 260.552 85.818C260.869 85.614 261.085 85.478 261.198 85.41C261.606 85.206 261.991 85.104 262.354 85.104C262.83 85.104 263.238 85.274 263.578 85.614C263.918 85.954 264.088 86.3507 264.088 86.804C264.088 87.416 263.771 87.9713 263.136 88.47C262.501 88.9913 261.651 89.4333 260.586 89.796C259.521 90.1587 258.444 90.34 257.356 90.34C255.452 90.34 253.786 89.9433 252.358 89.15C250.953 88.3567 249.865 87.2687 249.094 85.886C248.323 84.4807 247.938 82.9053 247.938 81.16C247.938 79.2107 248.346 77.4993 249.162 76.026C249.978 74.5527 251.055 73.4307 252.392 72.66C253.729 71.8667 255.157 71.47 256.676 71.47C258.172 71.47 259.577 71.878 260.892 72.694C262.229 73.51 263.295 74.6093 264.088 75.992C264.881 77.3747 265.278 78.8707 265.278 80.48ZM256.676 75.21C254.047 75.21 252.494 76.4453 252.018 78.916H260.926V78.678C260.835 77.726 260.371 76.91 259.532 76.23C258.693 75.55 257.741 75.21 256.676 75.21ZM278.133 71.47C278.813 71.47 279.379 71.6627 279.833 72.048C280.309 72.4333 280.547 72.8867 280.547 73.408C280.547 74.1107 280.365 74.6433 280.003 75.006C279.64 75.346 279.209 75.516 278.711 75.516C278.371 75.516 277.985 75.4367 277.555 75.278C277.487 75.2553 277.328 75.21 277.079 75.142C276.852 75.074 276.603 75.04 276.331 75.04C275.741 75.04 275.175 75.2213 274.631 75.584C274.087 75.9467 273.633 76.502 273.271 77.25C272.931 77.9753 272.761 78.848 272.761 79.868V87.926C272.761 88.5153 272.568 89.014 272.183 89.422C271.797 89.8073 271.31 90 270.721 90C270.131 90 269.644 89.8073 269.259 89.422C268.873 89.014 268.681 88.5153 268.681 87.926V73.884C268.681 73.2947 268.873 72.8073 269.259 72.422C269.644 72.014 270.131 71.81 270.721 71.81C271.31 71.81 271.797 72.014 272.183 72.422C272.568 72.8073 272.761 73.2947 272.761 73.884V74.326C273.282 73.3967 274.03 72.694 275.005 72.218C275.979 71.7193 277.022 71.47 278.133 71.47Z" fill="#00296B"/>
<path d="M69.2439 100.409C69.826 99.5495 70.9991 99.3224 71.8597 99.9062L84.7633 108.648L93.5989 103.686C94.5054 103.176 95.6529 103.499 96.1633 104.406C96.6727 105.312 96.3498 106.461 95.4434 106.97L80.6675 115.268C80.3761 115.432 80.0588 115.509 79.7473 115.509C79.0889 115.509 78.449 115.163 78.1034 114.548C77.594 113.642 77.9168 112.493 78.8233 111.984L81.091 110.71L69.7467 103.025C68.8863 102.441 68.6612 101.271 69.2439 100.409Z" fill="#FFD500"/>
<path d="M45.5683 118.839L47.6976 118.839L49.8876 103.509C50.0339 102.479 50.9853 101.77 52.018 101.912C53.0469 102.059 53.762 103.012 53.6151 104.042L51.5012 118.839L60.6321 118.84C61.6719 118.84 62.5151 119.683 62.5151 120.723C62.5151 121.763 61.6719 122.606 60.6321 122.606L45.5685 122.605C44.5287 122.605 43.6855 121.762 43.6855 120.722C43.6855 119.682 44.5285 118.839 45.5683 118.839Z" fill="#FFD500"/>
<path d="M15.3786 72.6178C31.7104 70.5157 54.2249 60.3677 54.9735 39.9281C55.4863 25.9262 66.1996 14.0094 80.1984 13.4182C91.7061 12.9324 101.668 19.8274 105.741 29.7603C107.251 33.4412 107.691 37.4738 107.15 41.4152L106.639 45.1385C106.108 49.0015 104.62 52.6832 102.243 55.7738C102.222 55.8006 102.201 55.8273 102.181 55.854C101.416 56.8404 101.02 58.0667 101.041 59.3147C101.45 83.3996 84.2289 107.57 52.5839 107.57C28.3136 107.57 7.67959 93.2125 0.144913 73.308C-0.530624 71.5234 1.27957 69.821 3.02364 70.5951C6.10519 71.9629 10.4982 73.2459 15.3786 72.6178Z" fill="#FFD500"/>
<path d="M39.4034 105.216C70.9947 105.216 100.112 77.4701 92.668 27.6729C91.8163 21.9756 88.3594 16.8741 84.2719 13.5626C94.1126 14.6518 102.322 21.1513 105.849 30.0264C107.313 33.7131 107.653 37.753 107.113 41.6833L106.69 44.7638C106.14 48.7702 104.672 52.634 102.197 55.8327C102.177 55.8594 102.156 55.8861 102.135 55.9126C101.356 56.9112 101.024 58.1708 101.043 59.437C101.391 83.4814 84.1752 107.57 52.5839 107.57C46.6205 107.57 40.8963 106.663 35.5125 105.06C36.801 105.143 38.0924 105.216 39.4034 105.216Z" fill="#FFD500"/>
<path d="M47.6437 52.2942C54.2652 47.062 63.5994 47.4864 70.0431 52.9361C94.5659 73.6759 49.3314 115.244 13.8409 69.1637C12.8094 67.8242 13.5294 65.8669 15.1796 65.4999C22.2228 63.934 38.2149 59.7447 47.6437 52.2942Z" fill="#FFD500"/>
<path d="M108.237 39.1619L113.467 43.6057C114.321 44.3318 114.116 45.7024 113.087 46.1469L106.798 48.8606C105.992 49.2082 105.071 48.8027 104.771 47.9784C104.048 45.9952 103.335 42.3588 106.118 39.3006C106.668 38.6948 107.613 38.6316 108.237 39.1619Z" fill="#FFD500"/>
<path d="M15.1784 65.499C16.8824 65.1198 19.1099 64.5873 21.6403 63.8928C36.6636 86.4672 65.9876 91.3779 75.9479 72.9424C69.9077 90.1138 39.3568 102.297 13.8378 69.1595C12.8071 67.8213 13.5294 65.866 15.1784 65.499Z" fill="#FFD500"/>
<path d="M90.7554 43.5209C93.8752 43.5209 96.4042 40.9917 96.4042 37.8721V35.9891C96.4042 32.8693 93.875 30.3403 90.7554 30.3403C87.6355 30.3403 85.1066 32.8695 85.1066 35.9891V37.8721C85.1066 40.9917 87.6358 43.5209 90.7554 43.5209Z" fill="#00296B"/>
<path d="M90.7554 30.3401V36.9305C90.7554 38.4904 89.4909 39.7549 87.931 39.7549C86.3711 39.7549 85.1066 38.4904 85.1066 36.9305V35.9891C85.1066 32.8692 87.6357 30.3401 90.7554 30.3401Z" fill="#003F88"/>
<path d="M90.7547 35.9902C89.7147 35.9902 88.8717 35.1472 88.8717 34.1072C88.8717 33.0673 89.7147 32.2242 90.7547 32.2242C91.7946 32.2242 92.6377 33.0673 92.6377 34.1072C92.6377 35.1472 91.7946 35.9902 90.7547 35.9902Z" fill="white"/>
<g clip-path="url(#clip0)">
<path d="M151.882 5.94556C156.028 7.81468 157.716 13.2093 158.282 15.6511C160.486 14.4579 165.646 12.1508 169.792 14.0199C175.159 16.4396 177.301 23.3427 174.567 29.4072C173.075 32.7159 170.372 35.2073 167.122 36.2812C167.062 36.324 166.997 36.3587 166.928 36.385L146.043 44.2656C145.823 44.3484 145.59 44.335 145.391 44.2452C145.191 44.1553 145.027 43.9895 144.943 43.7688L136.767 22.1809L136.681 21.9626C136.611 21.7929 136.543 21.6224 136.476 21.4127C136.444 21.3319 136.426 21.2485 136.421 21.1647C135.673 18.3682 135.945 15.3182 137.19 12.5563C139.924 6.49184 146.515 3.52585 151.882 5.94556ZM138.112 20.8729C138.122 20.9076 138.13 20.9431 138.135 20.9784C138.17 21.0949 138.217 21.2047 138.262 21.3156L146.239 42.3664L166.066 34.8839C166.15 34.8171 166.247 34.7658 166.352 34.7336C169.253 33.8545 171.679 31.6571 173.01 28.7051C175.357 23.4991 173.599 17.61 169.09 15.5774C164.632 13.5677 158.207 17.6668 158.142 17.7082C157.655 18.0227 156.92 17.6916 156.833 17.1179C156.821 17.0422 155.638 9.51268 151.18 7.50299C146.672 5.47035 141.094 8.05252 138.747 13.2585C137.641 15.7116 137.416 18.4162 138.112 20.8729Z" fill="#FF0000"/>
</g>
<defs>
<clipPath id="clip0">
<rect width="41" height="41" fill="white" transform="matrix(-0.911637 -0.410996 -0.410996 0.911637 180.228 16.8508)"/>
</clipPath>
</defs>
</svg>
