<svg width="23" height="21" viewBox="0 0 23 21" fill="none" xmlns="http://www.w3.org/2000/svg">
<path d="M11.3803 4.1781C10.6228 3.17274 8.74772 1.04112 6.46366 1.02887C3.5068 1.013 1.0867 3.71859 1.06877 7.05961C1.06061 8.58118 1.55804 10.0364 2.47158 11.1674C2.49108 11.2048 2.51644 11.2393 2.54728 11.27C2.62096 11.3525 2.68682 11.417 2.75352 11.4806L2.8377 11.5632L10.9932 19.8037C11.0765 19.8879 11.186 19.9304 11.2958 19.931C11.4056 19.9316 11.5151 19.8903 11.5994 19.8073L19.5774 11.9308C19.6039 11.9045 19.6267 11.8753 19.6453 11.8436C20.9179 10.6878 21.6506 8.99289 21.6604 7.1701C21.6783 3.82907 19.2873 1.09767 16.3305 1.08181C14.0464 1.06955 12.1486 3.18093 11.3803 4.1781Z" stroke="#FF0000"/>
</svg>
