<svg width="181" height="125" viewBox="0 0 181 125" fill="none" xmlns="http://www.w3.org/2000/svg">
<path d="M69.2439 100.409C69.826 99.5495 70.9991 99.3224 71.8597 99.9062L84.7633 108.648L93.5989 103.686C94.5054 103.176 95.6529 103.499 96.1633 104.406C96.6727 105.312 96.3498 106.461 95.4434 106.97L80.6675 115.268C80.3761 115.432 80.0588 115.509 79.7473 115.509C79.0889 115.509 78.449 115.163 78.1034 114.548C77.594 113.642 77.9168 112.493 78.8233 111.984L81.091 110.71L69.7467 103.025C68.8863 102.441 68.6612 101.271 69.2439 100.409Z" fill="#FFD500"/>
<path d="M45.5684 118.839L47.6976 118.839L49.8877 103.509C50.0339 102.479 50.9853 101.77 52.018 101.912C53.0469 102.059 53.7621 103.012 53.6151 104.042L51.5012 118.839L60.6321 118.84C61.6719 118.84 62.5151 119.683 62.5151 120.723C62.5151 121.763 61.6719 122.606 60.6321 122.606L45.5686 122.605C44.5288 122.605 43.6856 121.762 43.6856 120.722C43.6856 119.682 44.5286 118.839 45.5684 118.839Z" fill="#FFD500"/>
<path d="M15.3786 72.6178C31.7104 70.5157 54.2249 60.3677 54.9735 39.9281C55.4863 25.9262 66.1996 14.0094 80.1984 13.4183C91.7061 12.9324 101.668 19.8274 105.741 29.7603C107.251 33.4413 107.691 37.4738 107.15 41.4152L106.639 45.1385C106.108 49.0016 104.62 52.6832 102.243 55.7739C102.222 55.8006 102.201 55.8273 102.181 55.854C101.416 56.8404 101.02 58.0668 101.041 59.3147C101.45 83.3997 84.2289 107.57 52.5839 107.57C28.3136 107.57 7.67959 93.2125 0.144916 73.308C-0.530622 71.5234 1.27957 69.821 3.02364 70.5952C6.10519 71.9629 10.4982 73.2459 15.3786 72.6178Z" fill="#FFD500"/>
<path d="M39.4034 105.216C70.9947 105.216 100.112 77.4701 92.668 27.6729C91.8163 21.9756 88.3594 16.8741 84.2719 13.5625C94.1126 14.6518 102.322 21.1513 105.849 30.0264C107.313 33.7131 107.653 37.753 107.113 41.6833L106.69 44.7638C106.14 48.7702 104.672 52.634 102.197 55.8326C102.177 55.8594 102.156 55.8861 102.135 55.9126C101.356 56.9112 101.024 58.1708 101.043 59.437C101.391 83.4814 84.1752 107.57 52.5839 107.57C46.6205 107.57 40.8963 106.663 35.5125 105.06C36.801 105.143 38.0924 105.216 39.4034 105.216Z" fill="#FFD500"/>
<path d="M47.6437 52.2942C54.2652 47.062 63.5994 47.4864 70.0431 52.9361C94.5659 73.6758 49.3314 115.244 13.8409 69.1637C12.8094 67.8242 13.5294 65.8668 15.1796 65.4999C22.2228 63.934 38.2149 59.7447 47.6437 52.2942Z" fill="#FFD500"/>
<path d="M108.237 39.1619L113.467 43.6057C114.321 44.3318 114.116 45.7025 113.087 46.1469L106.798 48.8606C105.992 49.2082 105.071 48.8027 104.771 47.9784C104.048 45.9953 103.335 42.3588 106.118 39.3007C106.668 38.6948 107.613 38.6316 108.237 39.1619Z" fill="#FFD500"/>
<path d="M15.1783 65.499C16.8823 65.1198 19.1097 64.5873 21.6402 63.8928C36.6635 86.4672 65.9875 91.3779 75.9478 72.9424C69.9075 90.1138 39.3567 102.297 13.8377 69.1595C12.807 67.8213 13.5293 65.866 15.1783 65.499Z" fill="#FFD500"/>
<path d="M90.7555 43.5209C93.8754 43.5209 96.4043 40.9918 96.4043 37.8721V35.9891C96.4043 32.8693 93.8751 30.3403 90.7555 30.3403C87.6357 30.3403 85.1067 32.8695 85.1067 35.9891V37.8721C85.1067 40.9918 87.6359 43.5209 90.7555 43.5209Z" fill="#00296B"/>
<path d="M90.7554 30.3401V36.9305C90.7554 38.4904 89.4909 39.7549 87.931 39.7549C86.3711 39.7549 85.1066 38.4904 85.1066 36.9305V35.9891C85.1066 32.8692 87.6357 30.3401 90.7554 30.3401Z" fill="#003F88"/>
<path d="M90.7547 35.9902C89.7147 35.9902 88.8717 35.1472 88.8717 34.1072C88.8717 33.0673 89.7147 32.2242 90.7547 32.2242C91.7946 32.2242 92.6377 33.0673 92.6377 34.1072C92.6377 35.1472 91.7946 35.9902 90.7547 35.9902Z" fill="white"/>
<g clip-path="url(#clip0)">
<path d="M151.882 5.94557C156.028 7.8147 157.716 13.2093 158.282 15.6511C160.486 14.4579 165.646 12.1508 169.792 14.02C175.159 16.4396 177.301 23.3427 174.567 29.4072C173.075 32.7159 170.372 35.2073 167.122 36.2813C167.062 36.324 166.997 36.3587 166.928 36.385L146.043 44.2656C145.823 44.3484 145.59 44.335 145.391 44.2452C145.191 44.1554 145.027 43.9895 144.943 43.7688L136.767 22.1809L136.681 21.9626C136.611 21.7929 136.543 21.6224 136.476 21.4127C136.444 21.3319 136.426 21.2486 136.421 21.1648C135.673 18.3682 135.945 15.3183 137.19 12.5564C139.924 6.49185 146.515 3.52586 151.882 5.94557ZM138.112 20.8729C138.122 20.9076 138.13 20.9431 138.135 20.9784C138.17 21.0949 138.217 21.2047 138.262 21.3157L146.239 42.3664L166.066 34.884C166.15 34.8171 166.247 34.7658 166.352 34.7336C169.253 33.8545 171.679 31.6571 173.01 28.7051C175.357 23.4991 173.599 17.61 169.09 15.5774C164.632 13.5677 158.207 17.6669 158.142 17.7083C157.655 18.0227 156.92 17.6916 156.833 17.1179C156.821 17.0422 155.638 9.5127 151.18 7.503C146.672 5.47037 141.094 8.05254 138.747 13.2585C137.641 15.7116 137.416 18.4162 138.112 20.8729Z" fill="#FF0000"/>
</g>
<defs>
<clipPath id="clip0">
<rect width="41" height="41" fill="white" transform="matrix(-0.911637 -0.410996 -0.410996 0.911637 180.228 16.8508)"/>
</clipPath>
</defs>
</svg>
